<svg xmlns="http://www.w3.org/2000/svg" viewBox="0 0 75.78 46.83"><defs><style>.cls-1{fill:#ff0;}</style></defs><title>Asset 1</title><g id="Layer_2" data-name="Layer 2"><g id="Layer_1-2" data-name="Layer 1"><path d="M6.71,15A4.07,4.07,0,0,0,7,16.4c.49,1.31,2,1.59,3.2,1.59,1.1,0,2.78-.37,2.78-2,0-1.12-.95-1.43-4.7-2.49C4.79,12.53.85,11.58.85,7.2c0-5,4.3-7.2,8.78-7.2,4.73,0,8.91,1.8,9.09,7.1H12.38a1.66,1.66,0,0,0-.8-1.73,3.43,3.43,0,0,0-2-.55c-.91,0-2.4.24-2.4,1.46C7.32,7.84,10.43,8.17,13.5,9s6.13,2.29,6.13,6.28c0,5.67-5.21,7.5-10.06,7.5C7.1,22.8.06,21.92,0,15Z"/><path d="M37.05,18.75a6.42,6.42,0,0,0,.73,3.54H31.62a4.32,4.32,0,0,1-.21-1.5h-.06a6.45,6.45,0,0,1-5.09,1.89c-3.05,0-5.58-1.46-5.58-4.78,0-5,5.85-4.82,8.93-5.4.82-.15,1.64-.4,1.64-1.4s-1-1.47-2-1.47c-1.86,0-2.22.95-2.25,1.62H21.41A4.57,4.57,0,0,1,24.15,7a13,13,0,0,1,5.4-.91c7.56,0,7.5,3.14,7.5,6.19Zm-5.8-3.57a10,10,0,0,1-2.37.76c-1.34.31-2.05.64-2.05,1.71a1.75,1.75,0,0,0,1.9,1.46,2.39,2.39,0,0,0,2.52-2.47Z"/><path d="M40.25,6.46h5.83v2h.06a5.79,5.79,0,0,1,5.15-2.41,5.09,5.09,0,0,1,5.43,5.36V22.29h-6V14c0-1.83-.21-3.11-2-3.11-1,0-2.41.52-2.41,3v8.36h-6Z"/><path d="M66.18,4.76h-6V.52h6Zm-6,1.7h6V22.29h-6Z"/><path d="M69.75.52h6V22.29h-6Z"/><path d="M1.13,34.3c-.34-5.83,3.29-9.18,9-9.18,5.15,0,8.66,2.17,8.66,6.68,0,5.42-5.3,7.13-9.3,9.57v0h9.6v5.18H.7a8,8,0,0,1,1.53-5.24C4,38.87,7,37.26,9.76,35.61c1.09-.67,2.86-1.53,2.86-3.08a2.31,2.31,0,0,0-2.56-2.59c-2.44,0-3.26,1.77-3.2,4.36Z"/><path d="M27.05,41A1.9,1.9,0,0,0,28,42.13a3.27,3.27,0,0,0,1.47.31c2.74,0,3.47-2.53,3.81-4.27l-.06-.06a7,7,0,0,1-4.76,1.67c-4.15,0-7.19-2.37-7.19-6.73,0-5.15,4.11-7.93,8.93-7.93,6.22,0,8.93,4.76,8.93,10.09,0,6.74-3.17,11.62-9.66,11.62-3.93,0-7.32-1.65-8-5.83Zm-.19-8.14a3,3,0,0,0,3.05,2.87A2.88,2.88,0,0,0,33,32.9a2.93,2.93,0,0,0-3-3A3.05,3.05,0,0,0,26.86,32.86Z"/><path d="M55.65,30.3c-5.21,4.82-6.46,11.25-6.4,16.28H42.51a25.07,25.07,0,0,1,4.33-12.71,15.12,15.12,0,0,1,2.59-3.32H39.28V25.37H55.65Z"/><rect class="cls-1" x="57.76" y="36.38" width="10.2" height="10.2" rx="5.1"/></g></g></svg>